<?xml version="1.0" standalone="no"?>
<!DOCTYPE svg PUBLIC "-//W3C//DTD SVG 20010904//EN"
 "http://www.w3.org/TR/2001/REC-SVG-20010904/DTD/svg10.dtd">
<svg version="1.0" xmlns="http://www.w3.org/2000/svg"
 width="700.000000pt" height="700.000000pt" viewBox="0 0 700.000000 700.000000"
 preserveAspectRatio="xMidYMid meet">
<metadata>
Created by potrace 1.14, written by Peter Selinger 2001-2017
</metadata>
<g transform="translate(0.000000,700.000000) scale(0.100000,-0.100000)"
fill="#000000" stroke="none">
<path d="M1823 6332 c-51 -8 -64 -39 -194 -463 l-128 -414 2 -213 c2 -182 0
-212 -13 -213 -8 0 -42 0 -75 -1 -102 0 -150 -34 -147 -103 2 -44 189 -595
213 -628 20 -28 21 -41 21 -334 0 -167 -3 -307 -6 -310 -3 -3 -41 -7 -84 -8
-90 -3 -124 -19 -141 -67 -10 -28 0 -64 85 -322 94 -284 117 -345 136 -357 5
-3 9 -288 10 -685 1 -653 2 -680 20 -712 11 -18 31 -35 46 -39 15 -4 873 -7
1907 -7 1534 0 1886 2 1912 13 60 25 58 -15 58 1069 -1 932 -2 991 -19 1016
-9 15 -31 32 -48 38 -24 9 -28 15 -23 32 56 191 49 399 -20 582 -127 338 -453
601 -879 709 -55 14 -101 27 -103 28 -1 2 2 19 7 38 53 183 -102 375 -293 363
-108 -7 -199 -65 -248 -160 -19 -38 -24 -63 -24 -123 0 -42 4 -86 8 -98 7 -20
4 -23 -35 -33 -273 -68 -425 -137 -604 -276 -98 -76 -166 -150 -240 -261 -151
-226 -191 -482 -119 -764 5 -22 2 -28 -24 -39 -59 -24 -61 -36 -61 -290 l-1
-230 -224 0 c-124 0 -225 2 -225 4 0 3 34 103 76 223 41 120 75 232 76 250 0
71 -55 103 -169 99 l-63 -2 -1 50 c0 28 0 169 0 313 0 221 2 266 15 286 25 38
217 598 218 635 1 72 -53 105 -166 100 l-66 -3 -1 40 c0 22 -1 119 -1 215 l1
174 -121 391 c-66 214 -123 400 -125 412 -6 26 -51 69 -78 74 -11 3 -30 3 -42
1z"/>
</g>
</svg>
